<?xml version="1.0" encoding="utf-8"?>
<!-- Generator: Adobe Illustrator 16.0.0, SVG Export Plug-In . SVG Version: 6.00 Build 0)  -->
<!DOCTYPE svg PUBLIC "-//W3C//DTD SVG 1.1//EN" "http://www.w3.org/Graphics/SVG/1.1/DTD/svg11.dtd">
<svg version="1.1" xmlns="http://www.w3.org/2000/svg" xmlns:xlink="http://www.w3.org/1999/xlink" x="0px" y="0px"
	 width="175.77px" height="68.5px" viewBox="0 0 175.77 68.5" enable-background="new 0 0 175.77 68.5" xml:space="preserve">
<g id="Background_spacing" display="none">
	<rect x="-28.18" y="-28.42" display="inline" fill="#FDB927" width="233.26" height="122.85"/>
</g>
<g id="BTD_Ultra_Black">
	<g>
		<path fill="#FFFFFF" d="M2.7,52.33h6.6c2.4,0,3.57,1.02,3.57,2.88c0,1.08-0.45,2.03-2.09,2.42v0.03c1.71,0.23,2.39,1.42,2.39,2.6
			c0,1.91-1.49,3.19-4.26,3.19H2.7V52.33z M6.83,54.7v2.11h0.58c1.02,0,1.34-0.46,1.34-1.11c0-0.74-0.48-1-1.35-1H6.83z M6.83,61.07
			h0.62c1.08,0,1.51-0.35,1.51-1.17c0-0.68-0.52-1-1.55-1H6.83V61.07z"/>
		<path fill="#FFFFFF" d="M14.14,52.33h8.45v2.89h-4.23v1.19h3.91v2.89h-3.91v1.25h4.37v2.89h-8.59V52.33z"/>
		<path fill="#FFFFFF" d="M30.67,55.31h-2.74v-2.99h9.88v2.99h-2.74v8.13h-4.4V55.31z"/>
		<path fill="#FFFFFF" d="M44.56,59.35h-1.88v4.09h-4.4V52.33h4.4v3.76h1.88v-3.76h4.4v11.12h-4.4V59.35z"/>
		<path fill="#FFFFFF" d="M50.33,52.33h8.45v2.89h-4.23v1.19h3.91v2.89h-3.91v1.25h4.37v2.89h-8.59V52.33z"/>
		<path fill="#FFFFFF" d="M65.45,52.33h5.22c4.45,0,5.87,2.39,5.87,5.68c0,3.36-2.19,5.43-5.6,5.43h-5.48V52.33z M69.76,60.92h0.43
			c0.71,0,1.12-0.26,1.4-0.71c0.29-0.46,0.38-1.25,0.38-2.33s-0.09-1.86-0.38-2.33c-0.28-0.45-0.69-0.71-1.4-0.71h-0.43V60.92z"/>
		<path fill="#FFFFFF" d="M77.45,52.33h4.4v11.12h-4.4V52.33z"/>
		<path fill="#FFFFFF" d="M83.2,52.33h8.45v2.89H87.6v1.19h3.77v2.89H87.6v4.14h-4.4V52.33z"/>
		<path fill="#FFFFFF" d="M92.42,52.33h8.45v2.89h-4.05v1.19h3.77v2.89h-3.77v4.14h-4.4V52.33z"/>
		<path fill="#FFFFFF" d="M101.64,52.33h8.45v2.89h-4.23v1.19h3.91v2.89h-3.91v1.25h4.37v2.89h-8.59V52.33z"/>
		<path fill="#FFFFFF" d="M111.29,52.33h6.57c2.39,0,3.79,0.72,3.79,2.82c0,1.28-0.54,2.25-2.2,2.65v0.03
			c1.08,0.09,1.66,0.57,1.88,1.42c0.25,0.96,0.22,2.53,0.72,4.2h-4.31c-0.26-0.83-0.4-2.23-0.55-3.19
			c-0.09-0.55-0.37-0.77-1.08-0.77h-0.51v3.96h-4.31V52.33z M115.97,56.96c0.85,0,1.46-0.29,1.46-1.12c0-0.82-0.57-0.98-1.43-0.98
			h-0.4v2.11H115.97z"/>
		<path fill="#FFFFFF" d="M122.82,52.33h8.45v2.89h-4.23v1.19h3.91v2.89h-3.91v1.25h4.37v2.89h-8.59V52.33z"/>
		<path fill="#FFFFFF" d="M132.47,52.33h5.28l2.36,6.73h0.03v-6.73h3.57v11.12h-5.28l-2.36-6.77h-0.03v6.77h-3.57V52.33z"/>
		<path fill="#FFFFFF" d="M155.53,59.33c0,1.52-0.62,2.63-1.57,3.36c-0.95,0.71-2.25,1.05-3.63,1.05c-3.89,0-5.7-2.37-5.7-5.9
			c-0.11-3.46,1.96-5.8,5.71-5.8c2.8,0,5.17,1.14,5.19,4.4h-4.03c-0.06-1.26-0.52-1.51-1.06-1.51c-1.14,0-1.25,1.17-1.25,2.96
			c0,1.69,0.09,2.96,1.2,2.96c0.57,0,0.96-0.34,1.02-1.51H155.53z"/>
		<path fill="#FFFFFF" d="M156.48,52.33h8.45v2.89h-4.23v1.19h3.91v2.89h-3.91v1.25h4.37v2.89h-8.59V52.33z"/>
		<path fill="#FFFFFF" d="M166.23,60.27h3.72v3.17h-3.72V60.27z"/>
	</g>
	<g id="new_logo_for_position">
	</g>
	<line fill="none" stroke="#FFFFFF" stroke-width="0.75" x1="2.7" y1="46.53" x2="174.2" y2="46.53"/>
</g>
<g id="Q" display="none">
	<g display="inline">
		<path fill="#D31F37" d="M40.85,43.56c0-4.08,2.81-7.25,7.02-7.25c4,0,6.61,2.59,6.61,6.57c0,4.08-2.81,7.25-7.02,7.25
			C43.46,50.13,40.85,47.54,40.85,43.56z M52.09,43.99c0-5.3-2.93-6.94-4.82-6.94c-0.63,0-4.04,0.14-4.04,5.4
			c0,5.3,2.93,6.94,4.82,6.94C48.69,49.39,52.09,49.25,52.09,43.99z"/>
		<path fill="#D31F37" d="M49.41,47.52c-0.35,0.37-1.46,0.71-2.13,0.7c1.52,1.75,3.48,4.08,5.14,4.11c1.03,0.01,2.56-0.6,3.49-1.05
			l-0.25-0.53c-0.41,0.18-0.76,0.35-1.21,0.35C53.07,51.09,51.45,49.61,49.41,47.52z"/>
	</g>
</g>
<g id="Spacing_squares" display="none">
	<rect x="-28.18" y="63.5" display="inline" fill="#D31F37" width="30.88" height="30.93"/>
	<rect x="-28.18" y="-28.39" display="inline" fill="#D31F37" width="30.88" height="30.93"/>
	<rect x="174.2" y="63.5" display="inline" fill="#D31F37" width="30.88" height="30.93"/>
	<rect x="174.2" y="-28.39" display="inline" fill="#D31F37" width="30.88" height="30.93"/>
</g>
<g id="MU_type_unit_logo">
	<g>
		<path d="M40.96,29.23h-0.53c-0.15,0-0.18,0.07-0.18,0.19v3.95c0,0.93,0.07,2.62,1.99,2.62c0.53,0,2.26-0.12,2.26-2.48v-1.83
			c0-0.65,0-1.49-0.08-2.06c-0.06-0.37-0.14-0.39-0.46-0.39h-0.47v-0.39h2.2v0.39h-0.33c-0.31,0-0.36,0-0.36,0.15v4.16
			c0,2.16-1.58,2.99-3.07,2.99c-2.4,0-3.04-1.3-3.04-2.58v-3.13c0-1.55-0.07-1.6-0.45-1.6h-0.53v-0.39h3.05V29.23z"/>
		<path d="M52.99,34.17v-2.49c0-0.65,0-1.49-0.08-2.06c-0.06-0.37-0.14-0.39-0.46-0.39h-0.47v-0.39h2.2v0.39h-0.33
			c-0.31,0-0.36,0-0.36,0.15v6.91c0,0.08-0.04,0.14-0.12,0.14c-0.09,0-0.16-0.1-0.35-0.31l-5.2-5.91v3.26c0,0.65,0,1.5,0.08,2.06
			c0.06,0.37,0.14,0.39,0.46,0.39h0.47v0.39h-2.2v-0.39h0.33c0.31,0,0.37,0,0.37-0.15v-5.35c0-0.66-0.26-1.19-0.72-1.19h-0.34v-0.39
			h2.04L52.99,34.17z"/>
		<path d="M57.14,34.32c0,1.55,0.07,1.6,0.45,1.6h0.53v0.39h-3.05v-0.39h0.53c0.15,0,0.18-0.07,0.18-0.19v-4.91
			c0-1.55-0.07-1.6-0.45-1.6H54.8v-0.39h3.05v0.39h-0.53c-0.15,0-0.18,0.07-0.18,0.19V34.32z"/>
		<path d="M65.97,29.23h-0.54c-0.07,0-0.08,0-0.2,0.29l-2.8,6.86c-0.06,0.13-0.09,0.2-0.18,0.2c-0.08,0-0.11-0.05-0.14-0.13
			l-2.46-5.82c-0.54-1.25-0.65-1.4-0.94-1.4h-0.38v-0.39h2.91v0.39h-0.49c-0.13,0-0.2,0-0.2,0.08c0,0.06,0.21,0.49,0.46,1.07
			l1.71,4.01l1.4-3.34c0.14-0.34,0.52-1.33,0.52-1.65c0-0.15-0.11-0.18-0.28-0.18h-0.62v-0.39h2.25V29.23z"/>
		<path d="M66.71,35.92h0.53c0.15,0,0.18-0.07,0.18-0.19v-4.91c0-1.55-0.07-1.6-0.45-1.6h-0.53v-0.39h5.76
			c-0.13,1.12-0.14,1.2-0.26,1.2c-0.15,0-0.18-0.09-0.19-0.26c-0.01-0.2-0.63-0.48-1.98-0.48h-0.85c-0.12,0-0.15,0.03-0.15,0.15
			v2.58h1.09c1.25,0,1.29-0.14,1.29-0.48v-0.41h0.35v2.07h-0.35v-0.42c0-0.2-0.05-0.33-1.29-0.33h-1.09v0.86
			c0,2.51,0.05,2.54,0.45,2.54h0.41c0.63,0,2.24,0,2.6-0.65c0.05-0.08,0.07-0.15,0.18-0.15c0.08,0,0.13,0.06,0.13,0.14
			c0,0.1-0.06,0.28-0.31,1.12h-5.53V35.92z"/>
		<path d="M73.2,36.31v-0.39h0.53c0.15,0,0.18-0.07,0.18-0.19v-4.91c0-1.55-0.07-1.6-0.45-1.6h-0.53v-0.39h3.45
			c1.67,0,2.47,1.06,2.47,2.02c0,1.02-0.71,1.67-1.68,1.81c1.06,1.61,1.46,2.26,1.95,2.81c0.32,0.34,0.4,0.43,0.86,0.43v0.39h-1.34
			c-0.26,0-0.47,0-0.59-0.09c-0.34-0.28-1.21-1.67-2.05-3.31h-0.73v1.41c0,1.55,0.07,1.6,0.45,1.6h0.53v0.39H73.2z M75.27,32.52
			h0.42c0.94,0,1.79-0.41,1.79-1.47c0-1.39-1.18-1.75-1.54-1.75h-0.52c-0.12,0-0.15,0.03-0.15,0.15V32.52z"/>
		<path d="M80.32,30.78c0-1.43,1.48-2.16,2.8-2.16c0.48,0,0.99,0.05,1.45,0.22c0.01,0.31,0.06,0.78,0.06,0.96
			c0,0.14-0.08,0.17-0.17,0.17c-0.12,0-0.14-0.09-0.16-0.2c-0.11-0.51-0.92-0.67-1.34-0.67c-0.75,0-1.56,0.41-1.56,1.26
			c0,1.86,3.84,0.98,3.84,3.82c0,0.39-0.34,2.35-2.98,2.35c-0.65,0-1.32-0.12-1.93-0.34c-0.12-0.67-0.2-0.96-0.2-1.1
			c0-0.07,0-0.2,0.18-0.2c0.14,0,0.17,0.12,0.2,0.23c0.22,0.65,1.22,0.93,1.82,0.93c0.91,0,1.83-0.48,1.83-1.48
			C84.15,32.57,80.32,33.48,80.32,30.78z"/>
		<path d="M87.9,34.32c0,1.55,0.07,1.6,0.45,1.6h0.53v0.39h-3.05v-0.39h0.53c0.15,0,0.18-0.07,0.18-0.19v-4.91
			c0-1.55-0.07-1.6-0.45-1.6h-0.53v-0.39h3.05v0.39h-0.53c-0.15,0-0.18,0.07-0.18,0.19V34.32z"/>
		<path d="M94.3,36.31h-3.66v-0.39h0.88c0.15,0,0.18-0.07,0.18-0.19V29.3h-0.22c-0.54,0-1.82,0.02-2.12,0.61
			c-0.07,0.14-0.12,0.22-0.22,0.22c-0.08,0-0.15-0.05-0.15-0.14c0-0.05,0.09-0.28,0.37-1.15h6.07c0.27,0.87,0.36,1.11,0.36,1.15
			c0,0.09-0.07,0.14-0.15,0.14c-0.11,0-0.15-0.08-0.22-0.22c-0.29-0.59-1.58-0.61-2.12-0.61h-0.22v5.02c0,1.55,0.07,1.6,0.45,1.6
			h0.79V36.31z"/>
		<path d="M100.4,34.32c0,1.55,0.07,1.6,0.45,1.6h0.53v0.39h-3.05v-0.39h0.53c0.15,0,0.18-0.07,0.18-0.19v-2.61l-1.55-2.81
			c-0.6-1.08-0.71-1.08-0.89-1.08h-0.42v-0.39h3.01v0.39h-0.62c-0.05,0-0.08,0.01-0.08,0.07c0,0.05,0.09,0.2,0.11,0.23l1.63,2.99
			c1.29-2.35,1.52-3.01,1.52-3.14c0-0.14-0.09-0.15-0.26-0.15h-0.61v-0.39h2.19v0.39h-0.29c-0.26,0-0.29,0.05-0.46,0.34l-1.89,3.48
			V34.32z"/>
	</g>
	<g>
		<g>
			<g>
				<g>
					<g>
						<g>
							<g>
								<path d="M133.01,12.22h-6.96l-0.01,11.23c0,0.21,0.04,0.33,0.31,0.33h1.54v0.68h-6.38v-0.68h1.38
									c0.66,0,0.78-0.08,0.78-2.79v-8.76h-0.39c-0.94,0-3.18,0.04-3.69,1.07c-0.12,0.25-0.21,0.39-0.39,0.39
									c-0.14,0-0.27-0.08-0.27-0.25c0-0.08,0.16-0.49,0.64-2.01h20.33c0.47,1.52,0.64,1.93,0.64,2.01c0,0.16-0.12,0.25-0.27,0.25
									c-0.19,0-0.27-0.14-0.39-0.39c-0.51-1.03-2.75-1.07-3.69-1.07h-0.39v8.76c0,2.71,0.12,2.79,0.78,2.79h1.38v0.68h-6.38v-0.68
									h1.54c0.27,0,0.31-0.12,0.31-0.33V12.22H133.01"/>
							</g>
						</g>
					</g>
				</g>
			</g>
		</g>
		<path d="M46.21,20.74l4-9.32h3.49v0.68h-0.92c-0.27,0-0.31,0.12-0.31,0.33v8.56c0,2.71,0.12,2.79,0.78,2.79h0.92v0.68h-5.32v-0.68
			h0.92c0.27,0,0.31-0.12,0.31-0.33v-9.73h-0.04l-4.43,10.26c-0.04,0.1-0.1,0.35-0.25,0.35s-0.21-0.25-0.25-0.35l-4.5-9.89h-0.04
			v5.42c0,1.13,0,2.61,0.14,3.59c0.1,0.64,0.25,0.68,0.8,0.68h0.82v0.68h-3.84v-0.68h0.57c0.53,0,0.64,0,0.64-0.27v-8.66
			c0-1.79-0.1-2.75-1.25-2.75h-0.55v-0.68h3.92L46.21,20.74z"/>
		<path d="M58.59,19.73c-0.43,1.13-1.15,2.98-1.15,3.59c0,0.39,0.23,0.45,0.57,0.45h1.17v0.68h-4.17v-0.68h0.66
			c0.31,0,0.43-0.1,0.53-0.37c0.86-2.26,3-7.12,5.09-12.05c0.35-0.08,1.33-0.33,1.64-0.33c0.14,0,0.21,0.14,0.21,0.27
			c0,0.25-0.41,0.29-0.41,0.7c0,0.72,2.3,6.75,3.43,9.85c0.62,1.66,0.78,1.93,1.48,1.93h0.49v0.68h-5.17v-0.68h0.92
			c0.39,0,0.45-0.08,0.31-0.49l-1.23-3.55H58.59z M60.95,14.04c-0.76,1.62-1.4,3.26-2.03,4.89h3.71L60.95,14.04z"/>
		<path d="M68.95,24.45v-0.68h0.92c0.27,0,0.31-0.12,0.31-0.33v-8.56c0-2.71-0.12-2.79-0.78-2.79h-0.92v-0.68h6.01
			c2.92,0,4.31,1.85,4.31,3.53c0,1.79-1.23,2.92-2.94,3.16c1.85,2.81,2.54,3.94,3.41,4.91c0.55,0.6,0.7,0.76,1.5,0.76v0.68h-2.34
			c-0.45,0-0.82,0-1.03-0.16c-0.6-0.49-2.11-2.92-3.57-5.77h-1.27v2.46c0,2.71,0.12,2.79,0.78,2.79h0.92v0.68H68.95z M72.56,17.84
			h0.74c1.64,0,3.12-0.72,3.12-2.57c0-2.42-2.05-3.06-2.69-3.06h-0.9c-0.21,0-0.27,0.06-0.27,0.27V17.84z"/>
		<path d="M99.34,12.1h-0.92c-0.27,0-0.31,0.12-0.31,0.33v6.9c0,1.62,0.12,4.58,3.47,4.58c0.92,0,3.94-0.21,3.94-4.33v-3.2
			c0-1.13,0-2.61-0.14-3.59c-0.1-0.64-0.25-0.68-0.8-0.68h-0.82v-0.68h3.84v0.68h-0.57c-0.53,0-0.64,0-0.64,0.27v7.27
			c0,3.78-2.75,5.21-5.36,5.21c-4.19,0-5.3-2.26-5.3-4.5v-5.46c0-2.71-0.12-2.79-0.78-2.79h-0.92v-0.68h5.32V12.1z"/>
		<path d="M108.8,23.77h0.92c0.27,0,0.31-0.12,0.31-0.33v-8.56c0-2.71-0.12-2.79-0.78-2.79h-0.92v-0.68h10.06
			c-0.23,1.95-0.25,2.09-0.45,2.09c-0.27,0-0.31-0.16-0.33-0.45c-0.02-0.35-1.11-0.84-3.45-0.84h-1.48c-0.2,0-0.27,0.06-0.27,0.27
			v4.5h1.91c2.18,0,2.26-0.25,2.26-0.84v-0.72h0.62v3.61h-0.62v-0.74c0-0.35-0.08-0.58-2.26-0.58h-1.91v1.5
			c0,4.37,0.08,4.43,0.78,4.43h0.72c1.11,0,3.9,0,4.54-1.13c0.08-0.14,0.12-0.27,0.31-0.27c0.14,0,0.23,0.1,0.23,0.25
			c0,0.18-0.1,0.49-0.54,1.95h-9.65V23.77z"/>
		<path d="M141.33,23.77h0.92c0.27,0,0.31-0.12,0.31-0.33v-8.56c0-2.71-0.12-2.79-0.78-2.79h-0.92v-0.68h10.06
			c-0.23,1.95-0.25,2.09-0.45,2.09c-0.27,0-0.31-0.16-0.33-0.45c-0.02-0.35-1.11-0.84-3.45-0.84h-1.48c-0.21,0-0.27,0.06-0.27,0.27
			v4.5h1.91c2.18,0,2.26-0.25,2.26-0.84v-0.72h0.62v3.61h-0.62v-0.74c0-0.35-0.08-0.58-2.26-0.58h-1.91v1.5
			c0,4.37,0.08,4.43,0.78,4.43h0.72c1.11,0,3.9,0,4.54-1.13c0.08-0.14,0.12-0.27,0.31-0.27c0.14,0,0.23,0.1,0.23,0.25
			c0,0.18-0.1,0.49-0.53,1.95h-9.65V23.77z"/>
		<path d="M80.2,18.27c0-4.08,2.81-7.25,7.02-7.25c4,0,6.61,2.59,6.61,6.57c0,4.08-2.81,7.25-7.02,7.25
			C82.81,24.84,80.2,22.26,80.2,18.27z M91.44,18.7c0-5.3-2.93-6.94-4.82-6.94c-0.63,0-4.04,0.14-4.04,5.4
			c0,5.3,2.93,6.94,4.82,6.94C88.04,24.1,91.44,23.96,91.44,18.7z"/>
		<path d="M88.76,22.23c-0.35,0.37-1.46,0.71-2.13,0.7c1.52,1.75,3.48,4.08,5.14,4.11c1.03,0.01,2.56-0.6,3.49-1.05l-0.25-0.53
			c-0.41,0.18-0.76,0.35-1.21,0.35C92.42,25.81,90.81,24.33,88.76,22.23z"/>
	</g>
</g>
<g id="Tower_black" display="none">
	<g display="inline">
		<polygon points="11.2,11.92 11.2,11.53 4.13,11.53 4.13,11.54 4.13,39.65 7.48,39.65 7.48,39.26 4.52,39.26 4.52,11.92 		"/>
		<polygon points="25.02,11.92 25.02,11.53 32.15,11.53 32.15,11.54 32.15,39.65 28.8,39.65 28.8,39.26 31.75,39.26 31.75,11.92 		
			"/>
		<polygon points="14.65,9.63 14.7,9.61 14.7,6.24 14.78,6.18 14.69,5.63 14.8,5.63 14.8,5.38 14.65,5.38 14.56,4.79 14.68,4.79 
			14.68,4.59 14.53,4.59 14.44,4 14.54,4 14.54,3.86 14.42,3.86 14.33,3.33 14.25,3.86 14.12,3.86 14.12,4 14.23,4 14.13,4.59 
			13.98,4.59 13.98,4.79 14.1,4.79 14.01,5.38 13.86,5.38 13.86,5.63 13.97,5.63 13.89,6.18 14.02,6.28 14.02,8.39 14.15,8.62 		"/>
		<g>
			<polygon points="20.94,8.72 21.19,9.55 20.59,9.45 			"/>
		</g>
		<g>
			<polygon points="16.55,8.56 16.26,9.39 16.85,9.25 			"/>
		</g>
		<polygon points="15.32,8.72 15.06,9.58 15.66,9.45 		"/>
		<polygon points="7.49,41.09 2.7,41.09 2.7,10.17 11.19,10.17 11.19,10.78 3.31,10.78 3.31,40.48 7.49,40.48 		"/>
		<polygon points="28.84,39.87 28.84,40.48 32.96,40.48 32.96,10.78 25.02,10.78 25.02,10.17 33.58,10.17 33.58,41.09 28.2,41.09 
			28.21,39.98 28.8,39.98 		"/>
		<polygon points="24.14,5.98 23.99,5.98 23.9,5.4 24.02,5.4 24.02,5.2 23.87,5.2 23.78,4.61 23.88,4.61 23.88,4.46 23.75,4.46 
			23.67,3.93 23.59,4.46 23.46,4.46 23.46,4.61 23.57,4.61 23.47,5.2 23.32,5.2 23.32,5.4 23.44,5.4 23.35,5.98 23.2,5.98 
			23.2,6.23 23.31,6.23 23.22,6.78 23.33,6.86 23.33,10.15 24.01,10.58 24.01,6.86 24.12,6.78 24.03,6.23 24.14,6.23 		"/>
		<polygon points="18.62,4.91 18.47,4.91 18.37,4.29 18.49,4.29 18.49,4.07 18.34,4.07 18.24,3.44 18.34,3.44 18.34,3.29 
			18.21,3.29 18.12,2.72 18.03,3.29 17.9,3.29 17.9,3.44 18.01,3.44 17.91,4.07 17.75,4.07 17.75,4.29 17.88,4.29 17.78,4.91 
			17.62,4.91 17.62,5.18 17.74,5.18 17.64,5.77 17.72,5.83 17.71,7.99 18.12,7.15 18.49,7.86 18.52,5.83 18.6,5.77 18.51,5.18 
			18.62,5.18 		"/>
		<g>
			<polygon points="22.35,5.38 22.21,5.38 22.12,4.79 22.23,4.79 22.23,4.59 22.08,4.59 21.99,4 22.09,4 22.09,3.86 21.97,3.86 
				21.88,3.33 21.8,3.86 21.68,3.86 21.68,4 21.78,4 21.69,4.59 21.54,4.59 21.54,4.79 21.66,4.79 21.56,5.38 21.42,5.38 
				21.42,5.63 21.53,5.63 21.44,6.18 21.54,6.26 21.54,9.5 22.23,8.28 22.23,6.26 22.33,6.18 22.25,5.63 22.35,5.63 			"/>
		</g>
		<polygon points="13.04,5.98 12.9,5.98 12.8,5.4 12.92,5.4 12.92,5.2 12.77,5.2 12.68,4.61 12.78,4.61 12.78,4.46 12.66,4.46 
			12.57,3.93 12.49,4.46 12.37,4.46 12.37,4.61 12.47,4.61 12.38,5.2 12.23,5.2 12.23,5.4 12.34,5.4 12.25,5.98 12.11,5.98 
			12.11,6.23 12.21,6.23 12.13,6.78 12.23,6.86 12.23,10.7 12.92,10.2 12.92,6.86 13.02,6.78 12.93,6.23 13.04,6.23 		"/>
		<g>
			<polygon points="19.71,8.56 19.96,9.36 19.38,9.27 			"/>
		</g>
		<path d="M19.23,36.05c-0.66-0.59-1.11-0.81-1.11-0.81s-0.47,0.25-1.1,0.81c0.66,0.59,1.12,1.33,1.12,1.33S18.66,36.6,19.23,36.05z
			"/>
		<polygon points="18.6,11.9 19.8,12.03 19.8,10.29 18.6,10.08 		"/>
		<path d="M16.58,36.47c-0.31,0.27-0.67,0.64-1.1,1.35v3.26l2.25,0l0.01-3.28C17.25,36.94,16.58,36.47,16.58,36.47z"/>
		<path d="M31.96,11.92h-6.95v1.53l0.48,0.96l-0.38,0.58v1.27l-0.26,1.43l-0.01-0.03v-2.93l0.3-0.33l-0.51-0.92v-1.57v-0.39V9.35
			l-0.61,0l0,1.23l-0.77-0.48l-0.1-0.12V10v0.72l0.91,0.52v0.01v0.5v1.37l-0.23-0.21v-1.16v-0.36L23.16,11v0.75v0.75l0.88,1.36
			l-0.43,0.37v5.92l0.67,0.59l-0.25,0.37v6.83h-0.8v-6.83l0.22-0.38l-0.65-0.69v-6.21l0.37-0.32l-0.64-1.13v-0.64V9.44V9.43
			l0.36-1.15h-0.67L21.48,9.6l-2.45-0.39V8.89l-0.91-1.73L17.24,8.9v0.3l-2.6,0.42v0.01v0.63v0.01l1.83-0.3v2.03l-0.29,0.01v-1.69
			l-1.54,0.24v1.18v0.44l1.36-0.15l-0.51,1.11l-1.87,0.21l0.7,0.54v0.71l0.92-0.11v0.55l0,0.01l-0.92,0.1v0.3l0.9-0.1l0.02-0.01
			v2.68c-0.06-0.12-0.16-0.21-0.29-0.21c-0.18,0-0.33,0.17-0.33,0.39c0,0.14,0.05,0.25,0.14,0.32c-0.05-0.04-0.11-0.07-0.18-0.07
			c-0.18,0-0.32,0.17-0.32,0.39v7.35l-0.34-0.72c0,0-0.01,0-0.01,0l0.01-0.01l0,0.01c0.1-0.05,0.16-0.14,0.16-0.25
			c0-0.15-0.13-0.28-0.28-0.28c-0.16,0-0.28,0.13-0.28,0.28c0,0.12,0.07,0.22,0.17,0.26l0,0.02l-0.64,1.66l-0.02,0.05v-6.13
			l-0.22-0.37l0.67-0.7v-6.18l-0.33-0.37l0.54-1.06v-0.68V9.41l-0.02-0.19l-0.07-0.6h0.54l-0.14-0.23h-0.56l-0.23,1.13v0.48
			l-0.35,0.24l-0.63,0.46l0-1.32h-0.59v2.53h-0.01l0.01,1.52l-0.48,1.07l0.26,0.27v3.26l-0.01,0.02l-0.37-1.72v-1.51l-0.21-0.38
			l0.38-1.03v-1.5H4.34v27.36h3.15l0.01,1.82h1.93v-1.62h2.16v1.62h2.39V30.79h-0.04l0.04-0.02v0.02h1.5v0.77h3.69v2.53
			c0,0,0.54,0.4,0.83,0.72v0.6l0-0.01c-0.97-1.04-1.91-1.31-1.91-1.31s-1.46,0.41-2.62,2.22l0.04,0.7c1.17-1.81,2.62-2.4,2.62-2.4
			s0.94,0.39,1.89,1.45v0.76c-0.2-0.22-0.34-0.35-0.34-0.35c-0.36,0.28-0.7,0.72-1.14,1.35v3.27h2.29V30.8l1.52,0v0.8h1.54v4.89
			l-0.01-0.03c-0.25-0.17-0.44-0.23-0.44-0.23s-0.66,0.19-1.18,1.03l0.04,0.48c0.53-0.84,1.18-1.11,1.18-1.11s0.17,0.07,0.4,0.24
			l0.01,0.01v0.58h0c-0.24-0.19-0.41-0.26-0.41-0.26s-0.63,0.26-1.18,1.15v2.73h2.46v-1.64h2.09v0.54h1.3v1.1l0.7-0.01l-0.01-1.64
			l3.12-0.06V11.92z M12.93,28.34v0.77l-0.37,1.26H11.8l0.19-0.43H9.2l0.41-1.22v-1.06H9.6l0.01,0v0h1.87v0.67H12.93z M9.61,27.33
			v-2.04l1.87-0.01v2.07L9.61,27.33z M12.31,11.24l0.8-0.41v0.25l-0.56,0.28v1.58l-0.23,0.13h-0.01V11.24z M12.21,14.36l0.29-0.19
			v6.21l-0.33,0.23L12.21,14.36z M9.68,17.28l0.14-0.77L9.7,16.5l0-0.38l0.24,0.01l0.15-0.76H9.87v-0.36l0.3,0l0.14-0.75l-0.12,0
			v-0.33h0.35v0.33l-0.14,0.01v3.9l-0.9,0l0.11-0.55l-0.12-0.01l-0.01-0.34L9.68,17.28z M9.39,22.6l1.19-1.65h-0.57l0.01,0V18.5
			l0.92,0.01v3.03l0.74,1.07L9.39,22.6L9.39,22.6z M9.7,24.28v-1.12l0,0v-0.01l1.72,0.01v1.17l0.32,0.51l-1.07,0H9.38L9.7,24.28z
			 M8.84,21.34l0.36-0.03l-0.51,1.56l-0.65,0.01L8.84,21.34z M8.54,38.32l-0.18,0.27l-0.31,0.48H7.53l0.5-0.81l0-7.32l0.51-0.01
			L8.54,38.32z M8.81,29.23L8.49,30.3H7.86l0.47-1.11l0-3.83h0.48V29.23z M8.84,24.51l-0.06,0.54v0.01l-0.69,0l0.26-0.43v-1.41
			l0.48,0l0.01,0.02V24.51z M13.05,36.43v-0.02c-0.17-0.1-0.29-0.13-0.29-0.13s-0.63,0.21-1.1,0.86l0,0.44
			c0.48-0.68,1.1-0.95,1.1-0.95s0.11,0.04,0.28,0.16l0,0.01v0.58l-0.01-0.02c-0.17-0.12-0.27-0.16-0.27-0.16s-0.57,0.27-1.08,0.98
			l0.19,0.6H9.14l0.39-1.06l-0.01-7.15l2.14-0.01v1.01h1.39v4.83c0,0,0,0,0.01,0L13.05,36.43z M21.27,25.24
			c0-0.15,0.13-0.28,0.28-0.28c0.15,0,0.28,0.13,0.28,0.28c0,0.12-0.07,0.21-0.17,0.26l0.88,2.16h-1.98l0.88-2.16
			C21.35,25.46,21.27,25.36,21.27,25.24z M14.6,25.5c-0.1-0.04-0.17-0.14-0.17-0.26c0-0.15,0.13-0.28,0.28-0.28
			c0.16,0,0.28,0.13,0.28,0.28c0,0.11-0.07,0.21-0.17,0.26l0.76,2.17l-0.06-0.01h-1.68L14.6,25.5z M19.87,14.91l-0.01,0.06
			l-1.14-0.15v0.29l1.14,0.15l0.01,0l0,3.03c-0.03-0.01-0.07-0.02-0.1-0.02c-0.06,0-0.13,0.03-0.18,0.07
			c0.09-0.07,0.14-0.19,0.14-0.32c0-0.22-0.15-0.4-0.33-0.4s-0.32,0.17-0.32,0.39c0,0.14,0.05,0.25,0.14,0.32
			c-0.05-0.04-0.12-0.07-0.18-0.07c-0.18,0-0.32,0.16-0.32,0.38l0,7.04h0.19v2.27h0.77l0.01-0.03v0.97h-4.37l0.08,0.39h3.93
			l-0.41,1.07H15.6l0.11-0.18h-2.06v-0.01l0.49-1.17v-0.84h-0.03l0.03-0.02v0.02h1.31l0.23-0.48l0.01-0.03V13.67l0.34-0.06v14.35
			h1.39v-2.3l0.21-0.01V13.3l1.08-0.01v0.95l1.15,0.13V14.91z M18.65,12.91h-1.03l0.01-0.03V9.15V9.14V8.97l0.5-1.01l0.49,1.01v0.18
			v0.01v0.66l2.65,0.41v0.29l-1.1-0.17v1.74l1.3,0.14l0.96,1.13L18.65,12.91z M20.32,13.63l0.02,0.01l0.32,0.02v0.81l0.86,0.1l0,0.6
			l0.02,0l-0.02,0.01v-0.01l-0.87-0.1v0.3l0.86,0.1l0.01-0.02v2.43c-0.03-0.01-0.05-0.01-0.08-0.01c-0.18,0-0.32,0.17-0.32,0.39
			c0,0.14,0.05,0.25,0.14,0.32c-0.05-0.04-0.12-0.07-0.18-0.07c-0.18,0-0.33,0.18-0.33,0.4v6.45l0.01-0.01l-0.44,1L20.32,13.63z
			 M23.45,29.17l-0.44,1.22h-0.52l0.14-0.27h-2.1l0.02-0.01l0.46-1.08v-0.92V28.1h1.18v0.23h1.26V29.17z M26.15,13.86l0.01,0.35
			l-0.13-0.01l0.16,0.83l0.21-0.01v0.33l-0.17-0.01l0.17,0.77l0.24,0v0.33l-0.19-0.01l0.19,0.81l0.25,0v0.33l-0.2,0.01l0.14,0.56
			h-0.92v-3.95l-0.11,0l-0.01-0.35H26.15z M25.76,21h-0.33v-2.36l0.97,0v2.85h1.32l0.77,1.48h-1.79l0.16-0.41h-2.31L25.76,21z
			 M24.84,24.27v-1.15h1.69v0.52H28h0.03v0.89l0.3,0.7h-1.59l0.29-0.37h-2.54L24.84,24.27z M24.84,28.79v-1.06h1.84v-0.3h-1.84v-2.1
			h1.84v0.6h1.33h0.02v3.24l0.49,1.29h-1.59L27.19,30H24.4L24.84,28.79z M27.06,39.21l0.29-0.45h-3.02l0.41-1v-7.13h2.04v0.59h1.51
			h0.01v7.13l0.43,0.86H27.06z"/>
	</g>
</g>
<g id="White_tower_and_Marquette">
	<g>
		<path fill="#FFFFFF" d="M40.96,29.23h-0.53c-0.15,0-0.18,0.07-0.18,0.19v3.95c0,0.93,0.07,2.62,1.99,2.62
			c0.53,0,2.26-0.12,2.26-2.48v-1.83c0-0.65,0-1.49-0.08-2.06c-0.06-0.37-0.14-0.39-0.46-0.39h-0.47v-0.39h2.2v0.39h-0.33
			c-0.31,0-0.36,0-0.36,0.15v4.16c0,2.16-1.58,2.99-3.07,2.99c-2.4,0-3.04-1.3-3.04-2.58v-3.13c0-1.55-0.07-1.6-0.45-1.6h-0.53
			v-0.39h3.05V29.23z"/>
		<path fill="#FFFFFF" d="M52.99,34.17v-2.49c0-0.65,0-1.49-0.08-2.06c-0.06-0.37-0.14-0.39-0.46-0.39h-0.47v-0.39h2.2v0.39h-0.33
			c-0.31,0-0.36,0-0.36,0.15v6.91c0,0.08-0.04,0.14-0.12,0.14c-0.09,0-0.16-0.1-0.35-0.31l-5.2-5.91v3.26c0,0.65,0,1.5,0.08,2.06
			c0.06,0.37,0.14,0.39,0.46,0.39h0.47v0.39h-2.2v-0.39h0.33c0.31,0,0.37,0,0.37-0.15v-5.35c0-0.66-0.26-1.19-0.72-1.19h-0.34v-0.39
			h2.04L52.99,34.17z"/>
		<path fill="#FFFFFF" d="M57.14,34.32c0,1.55,0.07,1.6,0.45,1.6h0.53v0.39h-3.05v-0.39h0.53c0.15,0,0.18-0.07,0.18-0.19v-4.91
			c0-1.55-0.07-1.6-0.45-1.6H54.8v-0.39h3.05v0.39h-0.53c-0.15,0-0.18,0.07-0.18,0.19V34.32z"/>
		<path fill="#FFFFFF" d="M65.97,29.23h-0.54c-0.07,0-0.08,0-0.2,0.29l-2.8,6.86c-0.06,0.13-0.09,0.2-0.18,0.2
			c-0.08,0-0.11-0.05-0.14-0.13l-2.46-5.82c-0.54-1.25-0.65-1.4-0.94-1.4h-0.38v-0.39h2.91v0.39h-0.49c-0.13,0-0.2,0-0.2,0.08
			c0,0.06,0.21,0.49,0.46,1.07l1.71,4.01l1.4-3.34c0.14-0.34,0.52-1.33,0.52-1.65c0-0.15-0.11-0.18-0.28-0.18h-0.62v-0.39h2.25
			V29.23z"/>
		<path fill="#FFFFFF" d="M66.71,35.92h0.53c0.15,0,0.18-0.07,0.18-0.19v-4.91c0-1.55-0.07-1.6-0.45-1.6h-0.53v-0.39h5.76
			c-0.13,1.12-0.14,1.2-0.26,1.2c-0.15,0-0.18-0.09-0.19-0.26c-0.01-0.2-0.63-0.48-1.98-0.48h-0.85c-0.12,0-0.15,0.03-0.15,0.15
			v2.58h1.09c1.25,0,1.29-0.14,1.29-0.48v-0.41h0.35v2.07h-0.35v-0.42c0-0.2-0.05-0.33-1.29-0.33h-1.09v0.86
			c0,2.51,0.05,2.54,0.45,2.54h0.41c0.63,0,2.24,0,2.6-0.65c0.05-0.08,0.07-0.15,0.18-0.15c0.08,0,0.13,0.06,0.13,0.14
			c0,0.1-0.06,0.28-0.31,1.12h-5.53V35.92z"/>
		<path fill="#FFFFFF" d="M73.2,36.31v-0.39h0.53c0.15,0,0.18-0.07,0.18-0.19v-4.91c0-1.55-0.07-1.6-0.45-1.6h-0.53v-0.39h3.45
			c1.67,0,2.47,1.06,2.47,2.02c0,1.02-0.71,1.67-1.68,1.81c1.06,1.61,1.46,2.26,1.95,2.81c0.32,0.34,0.4,0.43,0.86,0.43v0.39h-1.34
			c-0.26,0-0.47,0-0.59-0.09c-0.34-0.28-1.21-1.67-2.05-3.31h-0.73v1.41c0,1.55,0.07,1.6,0.45,1.6h0.53v0.39H73.2z M75.27,32.52
			h0.42c0.94,0,1.79-0.41,1.79-1.47c0-1.39-1.18-1.75-1.54-1.75h-0.52c-0.12,0-0.15,0.03-0.15,0.15V32.52z"/>
		<path fill="#FFFFFF" d="M80.32,30.78c0-1.43,1.48-2.16,2.8-2.16c0.48,0,0.99,0.05,1.45,0.22c0.01,0.31,0.06,0.78,0.06,0.96
			c0,0.14-0.08,0.17-0.17,0.17c-0.12,0-0.14-0.09-0.16-0.2c-0.11-0.51-0.92-0.67-1.34-0.67c-0.75,0-1.56,0.41-1.56,1.26
			c0,1.86,3.84,0.98,3.84,3.82c0,0.39-0.34,2.35-2.98,2.35c-0.65,0-1.32-0.12-1.93-0.34c-0.12-0.67-0.2-0.96-0.2-1.1
			c0-0.07,0-0.2,0.18-0.2c0.14,0,0.17,0.12,0.2,0.23c0.22,0.65,1.22,0.93,1.82,0.93c0.91,0,1.83-0.48,1.83-1.48
			C84.15,32.57,80.32,33.48,80.32,30.78z"/>
		<path fill="#FFFFFF" d="M87.9,34.32c0,1.55,0.07,1.6,0.45,1.6h0.53v0.39h-3.05v-0.39h0.53c0.15,0,0.18-0.07,0.18-0.19v-4.91
			c0-1.55-0.07-1.6-0.45-1.6h-0.53v-0.39h3.05v0.39h-0.53c-0.15,0-0.18,0.07-0.18,0.19V34.32z"/>
		<path fill="#FFFFFF" d="M94.3,36.31h-3.66v-0.39h0.88c0.15,0,0.18-0.07,0.18-0.19V29.3h-0.22c-0.54,0-1.82,0.02-2.12,0.61
			c-0.07,0.14-0.12,0.22-0.22,0.22c-0.08,0-0.15-0.05-0.15-0.14c0-0.05,0.09-0.28,0.37-1.15h6.07c0.27,0.87,0.36,1.11,0.36,1.15
			c0,0.09-0.07,0.14-0.15,0.14c-0.11,0-0.15-0.08-0.22-0.22c-0.29-0.59-1.58-0.61-2.12-0.61h-0.22v5.02c0,1.55,0.07,1.6,0.45,1.6
			h0.79V36.31z"/>
		<path fill="#FFFFFF" d="M100.4,34.32c0,1.55,0.07,1.6,0.45,1.6h0.53v0.39h-3.05v-0.39h0.53c0.15,0,0.18-0.07,0.18-0.19v-2.61
			l-1.55-2.81c-0.6-1.08-0.71-1.08-0.89-1.08h-0.42v-0.39h3.01v0.39h-0.62c-0.05,0-0.08,0.01-0.08,0.07c0,0.05,0.09,0.2,0.11,0.23
			l1.63,2.99c1.29-2.35,1.52-3.01,1.52-3.14c0-0.14-0.09-0.15-0.26-0.15h-0.61v-0.39h2.19v0.39h-0.29c-0.26,0-0.29,0.05-0.46,0.34
			l-1.89,3.48V34.32z"/>
	</g>
	<g>
		<g>
			<g>
				<g>
					<g>
						<g>
							<g>
								<path fill="#FFFFFF" d="M133.01,12.22h-6.96l-0.01,11.23c0,0.21,0.04,0.33,0.31,0.33h1.54v0.68h-6.38v-0.68h1.38
									c0.66,0,0.78-0.08,0.78-2.79v-8.76h-0.39c-0.94,0-3.18,0.04-3.69,1.07c-0.12,0.25-0.21,0.39-0.39,0.39
									c-0.14,0-0.27-0.08-0.27-0.25c0-0.08,0.16-0.49,0.64-2.01h20.33c0.47,1.52,0.64,1.93,0.64,2.01c0,0.16-0.12,0.25-0.27,0.25
									c-0.19,0-0.27-0.14-0.39-0.39c-0.51-1.03-2.75-1.07-3.69-1.07h-0.39v8.76c0,2.71,0.12,2.79,0.78,2.79h1.38v0.68h-6.38v-0.68
									h1.54c0.27,0,0.31-0.12,0.31-0.33V12.22H133.01"/>
							</g>
						</g>
					</g>
				</g>
			</g>
		</g>
		<path fill="#FFFFFF" d="M46.21,20.74l4-9.32h3.49v0.68h-0.92c-0.27,0-0.31,0.12-0.31,0.33v8.56c0,2.71,0.12,2.79,0.78,2.79h0.92
			v0.68h-5.32v-0.68h0.92c0.27,0,0.31-0.12,0.31-0.33v-9.73h-0.04l-4.43,10.26c-0.04,0.1-0.1,0.35-0.25,0.35s-0.21-0.25-0.25-0.35
			l-4.5-9.89h-0.04v5.42c0,1.13,0,2.61,0.14,3.59c0.1,0.64,0.25,0.68,0.8,0.68h0.82v0.68h-3.84v-0.68h0.57c0.53,0,0.64,0,0.64-0.27
			v-8.66c0-1.79-0.1-2.75-1.25-2.75h-0.55v-0.68h3.92L46.21,20.74z"/>
		<path fill="#FFFFFF" d="M58.59,19.73c-0.43,1.13-1.15,2.98-1.15,3.59c0,0.39,0.23,0.45,0.57,0.45h1.17v0.68h-4.17v-0.68h0.66
			c0.31,0,0.43-0.1,0.53-0.37c0.86-2.26,3-7.12,5.09-12.05c0.35-0.08,1.33-0.33,1.64-0.33c0.14,0,0.21,0.14,0.21,0.27
			c0,0.25-0.41,0.29-0.41,0.7c0,0.72,2.3,6.75,3.43,9.85c0.62,1.66,0.78,1.93,1.48,1.93h0.49v0.68h-5.17v-0.68h0.92
			c0.39,0,0.45-0.08,0.31-0.49l-1.23-3.55H58.59z M60.95,14.04c-0.76,1.62-1.4,3.26-2.03,4.89h3.71L60.95,14.04z"/>
		<path fill="#FFFFFF" d="M68.95,24.45v-0.68h0.92c0.27,0,0.31-0.12,0.31-0.33v-8.56c0-2.71-0.12-2.79-0.78-2.79h-0.92v-0.68h6.01
			c2.92,0,4.31,1.85,4.31,3.53c0,1.79-1.23,2.92-2.94,3.16c1.85,2.81,2.54,3.94,3.41,4.91c0.55,0.6,0.7,0.76,1.5,0.76v0.68h-2.34
			c-0.45,0-0.82,0-1.03-0.16c-0.6-0.49-2.11-2.92-3.57-5.77h-1.27v2.46c0,2.71,0.12,2.79,0.78,2.79h0.92v0.68H68.95z M72.56,17.84
			h0.74c1.64,0,3.12-0.72,3.12-2.57c0-2.42-2.05-3.06-2.69-3.06h-0.9c-0.21,0-0.27,0.06-0.27,0.27V17.84z"/>
		<path fill="#FFFFFF" d="M99.34,12.1h-0.92c-0.27,0-0.31,0.12-0.31,0.33v6.9c0,1.62,0.12,4.58,3.47,4.58
			c0.92,0,3.94-0.21,3.94-4.33v-3.2c0-1.13,0-2.61-0.14-3.59c-0.1-0.64-0.25-0.68-0.8-0.68h-0.82v-0.68h3.84v0.68h-0.57
			c-0.53,0-0.64,0-0.64,0.27v7.27c0,3.78-2.75,5.21-5.36,5.21c-4.19,0-5.3-2.26-5.3-4.5v-5.46c0-2.71-0.12-2.79-0.78-2.79h-0.92
			v-0.68h5.32V12.1z"/>
		<path fill="#FFFFFF" d="M108.8,23.77h0.92c0.27,0,0.31-0.12,0.31-0.33v-8.56c0-2.71-0.12-2.79-0.78-2.79h-0.92v-0.68h10.06
			c-0.23,1.95-0.25,2.09-0.45,2.09c-0.27,0-0.31-0.16-0.33-0.45c-0.02-0.35-1.11-0.84-3.45-0.84h-1.48c-0.2,0-0.27,0.06-0.27,0.27
			v4.5h1.91c2.18,0,2.26-0.25,2.26-0.84v-0.72h0.62v3.61h-0.62v-0.74c0-0.35-0.08-0.58-2.26-0.58h-1.91v1.5
			c0,4.37,0.08,4.43,0.78,4.43h0.72c1.11,0,3.9,0,4.54-1.13c0.08-0.14,0.12-0.27,0.31-0.27c0.14,0,0.23,0.1,0.23,0.25
			c0,0.18-0.1,0.49-0.54,1.95h-9.65V23.77z"/>
		<path fill="#FFFFFF" d="M141.33,23.77h0.92c0.27,0,0.31-0.12,0.31-0.33v-8.56c0-2.71-0.12-2.79-0.78-2.79h-0.92v-0.68h10.06
			c-0.23,1.95-0.25,2.09-0.45,2.09c-0.27,0-0.31-0.16-0.33-0.45c-0.02-0.35-1.11-0.84-3.45-0.84h-1.48c-0.21,0-0.27,0.06-0.27,0.27
			v4.5h1.91c2.18,0,2.26-0.25,2.26-0.84v-0.72h0.62v3.61h-0.62v-0.74c0-0.35-0.08-0.58-2.26-0.58h-1.91v1.5
			c0,4.37,0.08,4.43,0.78,4.43h0.72c1.11,0,3.9,0,4.54-1.13c0.08-0.14,0.12-0.27,0.31-0.27c0.14,0,0.23,0.1,0.23,0.25
			c0,0.18-0.1,0.49-0.53,1.95h-9.65V23.77z"/>
		<path fill="#FFFFFF" d="M80.2,18.27c0-4.08,2.81-7.25,7.02-7.25c4,0,6.61,2.59,6.61,6.57c0,4.08-2.81,7.25-7.02,7.25
			C82.81,24.84,80.2,22.26,80.2,18.27z M91.44,18.7c0-5.3-2.93-6.94-4.82-6.94c-0.63,0-4.04,0.14-4.04,5.4
			c0,5.3,2.93,6.94,4.82,6.94C88.04,24.1,91.44,23.96,91.44,18.7z"/>
		<path fill="#FFFFFF" d="M88.76,22.23c-0.35,0.37-1.46,0.71-2.13,0.7c1.52,1.75,3.48,4.08,5.14,4.11c1.03,0.01,2.56-0.6,3.49-1.05
			l-0.25-0.53c-0.41,0.18-0.76,0.35-1.21,0.35C92.42,25.81,90.81,24.33,88.76,22.23z"/>
	</g>
	<g>
		<g>
			<polygon fill="#FFFFFF" points="13.93,25.55 13.94,25.55 13.94,25.54 			"/>
			<path fill="#FFFFFF" d="M14.65,10.29V9.64l0.06-0.02V6.24l0.08-0.06L14.7,5.63h0.11V5.38h-0.15l-0.09-0.59h0.12v-0.2h-0.15
				L14.44,4h0.1V3.85h-0.12l-0.08-0.53l-0.08,0.53h-0.12V4h0.1l-0.09,0.59h-0.15v0.2h0.12l-0.09,0.59h-0.15v0.25h0.11l-0.09,0.55
				l0.13,0.11V8.4l0.14,0.22l-0.53,0.01l0.09,0.79v3.03l-0.54,1.06l0.33,0.37v6.2l-0.67,0.7l0.22,0.37v6.14l0.02-0.05l0.64-1.66
				v-0.02c-0.1-0.04-0.17-0.14-0.17-0.26c0-0.16,0.13-0.28,0.28-0.28c0.16,0,0.28,0.13,0.28,0.28c0,0.11-0.07,0.21-0.16,0.26
				l0.34,0.72V18.9c0-0.22,0.15-0.39,0.33-0.39c0.06,0,0.13,0.03,0.18,0.07c-0.09-0.07-0.14-0.19-0.14-0.32
				c0-0.22,0.15-0.39,0.33-0.39c0.12,0,0.23,0.08,0.29,0.21v-2.69l-0.02,0.01l-0.91,0.1v-0.3l0.92-0.1l0-0.01v-0.56l-0.92,0.11
				v-0.71l-0.7-0.54l1.87-0.21l0.51-1.12l-1.36,0.15v-1.62l1.54-0.24v1.69l0.29-0.01V9.98L14.65,10.29z"/>
		</g>
		<polygon fill="#FFFFFF" points="24.68,11.94 24.68,13.51 25.18,14.44 24.88,14.77 24.88,17.7 24.89,17.72 25.15,16.29 
			25.15,15.02 25.53,14.44 25.05,13.47 25.05,11.94 		"/>
		<polygon fill="#FFFFFF" points="22.92,8.29 22.57,9.45 22.57,12.41 23.21,13.54 22.84,13.85 22.84,20.08 23.49,20.76 23.27,21.15 
			23.27,27.99 24.07,27.99 24.07,21.15 24.32,20.78 23.64,20.19 23.64,14.25 24.07,13.88 23.19,12.52 23.19,11.02 23.86,11.4 
			23.86,12.93 24.09,13.14 24.09,11.26 23.19,10.74 23.19,10.01 		"/>
		<polygon fill="#FFFFFF" points="25.91,14.23 25.8,14.23 25.79,13.88 26.18,13.88 26.19,14.24 26.05,14.23 26.21,15.06 
			26.42,15.05 26.42,15.38 26.25,15.37 26.42,16.14 26.66,16.15 26.66,16.48 26.46,16.47 26.65,17.28 26.9,17.28 26.9,17.62 
			26.7,17.62 26.84,18.19 25.91,18.19 		"/>
		<polygon fill="#FFFFFF" points="26.44,18.67 26.44,21.52 27.76,21.52 28.53,23.01 26.74,23.01 26.9,22.59 24.59,22.59 
			25.79,21.04 25.46,21.04 25.46,18.67 		"/>
		<polyline fill="#FFFFFF" points="28.06,23.68 28.06,24.58 28.36,25.28 26.77,25.28 27.06,24.91 24.51,24.91 24.87,24.32 
			24.87,23.16 26.56,23.16 26.56,23.68 28.03,23.68 		"/>
		<polyline fill="#FFFFFF" points="28.06,25.98 28.06,29.23 28.56,30.53 26.96,30.53 27.22,30.06 24.43,30.06 24.87,28.85 
			24.87,27.79 26.71,27.79 26.71,27.48 24.87,27.48 24.87,25.38 26.71,25.38 26.71,25.98 28.04,25.98 		"/>
		<polyline fill="#FFFFFF" points="28.35,31.28 28.35,38.43 28.78,39.29 27.1,39.29 27.39,38.84 24.36,38.84 24.77,37.84 
			24.77,30.69 26.82,30.69 26.82,31.28 28.34,31.28 		"/>
		<path fill="#FFFFFF" d="M22.32,41.17v-2.73c0.56-0.9,1.18-1.16,1.18-1.16s0.17,0.07,0.41,0.26h0v-0.58l-0.01-0.01
			c-0.23-0.18-0.4-0.24-0.4-0.24s-0.66,0.27-1.18,1.11l-0.04-0.48c0.53-0.84,1.18-1.03,1.18-1.03s0.19,0.05,0.44,0.23l0.01,0.03
			v-4.9h-1.54v-0.8l-1.53-0.01v10.31H22.32z"/>
		<polygon fill="#FFFFFF" points="20.54,30.19 22.65,30.19 22.51,30.46 23.04,30.46 23.48,29.23 23.48,28.39 22.21,28.39 
			22.21,28.16 21.02,28.16 21.03,28.17 21.03,29.09 20.56,30.18 		"/>
		<path fill="#FFFFFF" d="M21.46,25.55c-0.1-0.04-0.17-0.14-0.17-0.26c0-0.16,0.13-0.28,0.28-0.28c0.16,0,0.28,0.13,0.28,0.28
			c0,0.12-0.07,0.22-0.17,0.26l0.88,2.16h-1.98L21.46,25.55z"/>
		<path fill="#FFFFFF" d="M21.55,15.46v2.43c-0.03-0.01-0.05-0.01-0.08-0.01c-0.18,0-0.33,0.17-0.33,0.39
			c0,0.14,0.05,0.25,0.14,0.32c-0.05-0.04-0.12-0.07-0.18-0.07c-0.18,0-0.33,0.18-0.33,0.4v6.47l0.01-0.01l-0.44,1l-0.01-12.74
			l0.02,0l0.32,0.02v0.81l0.87,0.1v0.61l0.02-0.01l-0.88-0.1v0.3l0.86,0.1L21.55,15.46z"/>
		<path fill="#FFFFFF" d="M15.53,27.72h-1.68l0.76-2.16c-0.1-0.04-0.17-0.14-0.17-0.26c0-0.16,0.13-0.28,0.28-0.28
			c0.16,0,0.28,0.13,0.28,0.28c0,0.11-0.07,0.22-0.17,0.26l0.76,2.17L15.53,27.72z"/>
		<path fill="#FFFFFF" d="M19.87,15.28l-1.15-0.15v-0.29l1.15,0.15l0.01-0.06v-0.54l-1.16-0.13v-0.95l-1.09,0.01v12.39l-0.21,0.01
			v2.31h-1.39V13.63l-0.34,0.05v14l-0.01,0.03l-0.23,0.48h-1.34l0.03-0.02v0.85l-0.49,1.17v0.01h2.06L15.6,30.4h3.33l0.41-1.07
			h-3.94l-0.08-0.39h4.38v-0.98l-0.01,0.03h-0.77v-2.27h-0.19l0-7.06c0-0.22,0.14-0.38,0.33-0.38c0.06,0,0.13,0.03,0.18,0.07
			c-0.09-0.07-0.14-0.19-0.14-0.32c0-0.22,0.15-0.39,0.33-0.39s0.33,0.18,0.33,0.4c0,0.14-0.05,0.25-0.14,0.32
			c0.05-0.04,0.12-0.07,0.18-0.07c0.03,0,0.07,0.01,0.1,0.02L19.87,15.28L19.87,15.28z"/>
		<polygon fill="#FFFFFF" points="9.19,21.35 8.68,22.9 8.03,22.91 8.83,21.38 		"/>
		<polygon fill="#FFFFFF" points="8.8,29.29 8.8,25.4 8.32,25.4 8.31,29.25 7.84,30.36 8.48,30.36 		"/>
		<polygon fill="#FFFFFF" points="8.76,25.09 8.83,24.55 8.83,23.28 8.81,23.25 8.33,23.26 8.33,24.67 8.07,25.1 8.76,25.1 		"/>
		<polygon fill="#FFFFFF" points="8.02,31 8.02,38.34 7.51,39.15 8.04,39.15 8.34,38.67 8.53,38.4 8.53,30.98 		"/>
		<rect x="9.42" y="39.55" fill="#FFFFFF" width="2.16" height="1.64"/>
		<path fill="#FFFFFF" d="M9.51,30.64l0.01,7.17l-0.39,1.06h2.74l-0.19-0.6c0.51-0.71,1.09-0.98,1.09-0.98s0.11,0.04,0.27,0.16
			l0.01,0.02v-0.58l0-0.01c-0.17-0.11-0.28-0.16-0.28-0.16s-0.62,0.27-1.1,0.95l0-0.44c0.48-0.65,1.1-0.86,1.1-0.86
			s0.12,0.03,0.29,0.13l-0.01,0.02v-4.87h-1.39v-1.01L9.51,30.64z"/>
		<polygon fill="#FFFFFF" points="11.98,30 9.19,30 9.6,28.78 9.6,27.71 9.59,27.72 11.47,27.72 11.47,28.39 12.93,28.39 
			12.93,29.16 12.56,30.43 11.79,30.43 		"/>
		<polygon fill="#FFFFFF" points="10.01,18.53 10.01,20.98 10,20.98 10.58,20.98 9.39,22.64 9.38,22.65 11.68,22.65 10.93,21.58 
			10.93,18.54 		"/>
		<polygon fill="#FFFFFF" points="12.32,13.09 12.54,12.96 12.54,11.38 13.11,11.1 13.11,10.84 12.31,11.25 12.31,13.09 		"/>
		<polygon fill="#FFFFFF" points="12.18,20.65 12.5,20.42 12.5,14.2 12.21,14.38 		"/>
		<polygon fill="#FFFFFF" points="24.79,41.17 24.79,39.53 26.88,39.53 26.88,40.07 28.19,40.07 28.19,41.17 		"/>
		<polygon fill="#FFFFFF" points="9.37,24.88 9.69,24.33 9.69,23.2 11.4,23.2 11.4,24.36 11.72,24.88 		"/>
		<g>
			<polygon fill="#FFFFFF" points="20.96,8.73 21.21,9.56 20.61,9.46 			"/>
		</g>
		<g>
			<polygon fill="#FFFFFF" points="19.73,8.57 19.97,9.37 19.39,9.28 			"/>
		</g>
		<g>
			<polygon fill="#FFFFFF" points="16.55,8.57 16.28,9.35 16.86,9.26 			"/>
		</g>
		<g>
			<polygon fill="#FFFFFF" points="15.33,8.73 15.07,9.54 15.66,9.46 			"/>
		</g>
		<polygon fill="#FFFFFF" points="18.64,4.91 18.48,4.91 18.38,4.28 18.51,4.28 18.51,4.07 18.35,4.07 18.25,3.44 18.36,3.44 
			18.36,3.28 18.22,3.28 18.13,2.71 18.04,3.28 17.91,3.28 17.91,3.44 18.02,3.44 17.92,4.07 17.76,4.07 17.76,4.28 17.89,4.28 
			17.79,4.91 17.63,4.91 17.63,5.18 17.75,5.18 17.65,5.77 17.73,5.83 17.72,8 18.13,7.15 18.5,7.87 18.53,5.83 18.61,5.77 
			18.52,5.18 18.64,5.18 		"/>
		<g>
			<polygon fill="#FFFFFF" points="22.37,5.38 22.23,5.38 22.14,4.79 22.25,4.79 22.25,4.59 22.11,4.59 22.01,4 22.11,4 22.11,3.85 
				21.99,3.85 21.91,3.32 21.82,3.85 21.7,3.85 21.7,4 21.8,4 21.71,4.59 21.56,4.59 21.56,4.79 21.68,4.79 21.58,5.38 21.44,5.38 
				21.44,5.63 21.54,5.63 21.46,6.18 21.56,6.26 21.56,9.51 22.25,8.29 22.25,6.26 22.35,6.18 22.27,5.63 22.37,5.63 			"/>
		</g>
		<polygon fill="#FFFFFF" points="24.16,5.98 24.02,5.98 23.93,5.4 24.04,5.4 24.04,5.2 23.9,5.2 23.8,4.61 23.9,4.61 23.9,4.46 
			23.78,4.46 23.7,3.93 23.61,4.46 23.49,4.46 23.49,4.61 23.59,4.61 23.5,5.2 23.35,5.2 23.35,5.4 23.47,5.4 23.37,5.98 
			23.23,5.98 23.23,6.23 23.33,6.23 23.25,6.78 23.35,6.87 23.35,10.16 24.04,10.59 24.04,6.87 24.14,6.78 24.06,6.23 24.16,6.23 		
			"/>
		<polygon fill="#FFFFFF" points="13.04,5.98 12.89,5.98 12.8,5.4 12.92,5.4 12.92,5.2 12.77,5.2 12.68,4.61 12.78,4.61 12.78,4.46 
			12.66,4.46 12.57,3.93 12.49,4.46 12.36,4.46 12.36,4.61 12.47,4.61 12.37,5.2 12.22,5.2 12.22,5.4 12.34,5.4 12.25,5.98 
			12.1,5.98 12.1,6.23 12.21,6.23 12.12,6.78 12.23,6.87 12.23,10.68 12.92,10.21 12.92,6.87 13.02,6.78 12.93,6.23 13.04,6.23 		
			"/>
		<polyline fill="#FFFFFF" points="11.41,18.06 11.41,14.79 11.15,14.51 11.63,13.44 11.62,11.92 11.19,11.92 11.19,13.43 
			10.82,14.46 11.02,14.84 11.02,16.35 11.4,18.07 		"/>
		<polygon fill="#FFFFFF" points="11.73,24.88 11.42,24.37 11.42,23.2 9.69,23.19 9.69,24.33 9.38,24.87 		"/>
		<polygon fill="#FFFFFF" points="11.47,27.4 11.47,25.32 9.6,25.34 9.6,27.38 		"/>
		<g>
			<polygon fill="#FFFFFF" points="13.94,30.86 13.98,30.86 13.98,30.84 			"/>
			<path fill="#FFFFFF" d="M20.01,36.84v0.02C20.01,36.86,20.02,36.85,20.01,36.84z"/>
			<path fill="#FFFFFF" d="M20.03,36.14c-0.96-1.06-1.9-1.45-1.9-1.45s-1.46,0.59-2.63,2.41l-0.04-0.7
				c1.17-1.82,2.63-2.23,2.63-2.23s0.94,0.27,1.92,1.31l0,0.01v-0.6c-0.3-0.32-0.83-0.73-0.83-0.73v-2.53h-3.7v-0.77h-1.5v10.32
				l1.51,0V37.9c0.44-0.71,0.79-1.08,1.11-1.35c0,0,0.66,0.47,1.15,1.34l-0.01,3.29l0.81,0V37.9c0.44-0.63,0.78-1.07,1.14-1.35
				c0,0,0.14,0.14,0.35,0.35V36.14z M18.15,37.46c0,0-0.46-0.74-1.12-1.33c0.64-0.57,1.11-0.82,1.11-0.82s0.45,0.22,1.11,0.81
				C18.67,36.68,18.15,37.46,18.15,37.46z"/>
		</g>
		<polygon fill="#FFFFFF" points="10.39,18.21 10.39,14.31 10.54,14.29 10.54,13.96 10.18,13.96 10.18,14.29 10.3,14.29 
			10.16,15.04 9.86,15.04 9.86,15.4 10.08,15.4 9.93,16.16 9.69,16.15 9.69,16.53 9.81,16.54 9.67,17.31 9.47,17.31 9.48,17.65 
			9.6,17.66 9.49,18.22 		"/>
		<path fill="#FFFFFF" d="M21.49,12.24l-1.31-0.14v-1.75l1.1,0.17v-0.29l-2.66-0.41V9.16V9.15V8.97l-0.5-1.01l-0.5,1.01v0.17v0.01
			v3.74l-0.01,0.03h1.03l3.8,0.44L21.49,12.24z M19.81,12.05l-1.2-0.14v-1.82l1.2,0.21V12.05z"/>
		<polygon fill="#FFFFFF" points="7.47,41.18 2.67,41.18 2.67,10.18 11.64,10.18 11.64,10.79 3.29,10.79 3.29,40.57 7.48,40.57 		
			"/>
		<polygon fill="#FFFFFF" points="11.63,11.93 11.63,11.54 4.11,11.54 4.11,11.56 4.11,39.73 7.46,39.74 7.46,39.34 4.5,39.34 
			4.5,11.93 		"/>
		<polygon fill="#FFFFFF" points="24.67,11.93 24.67,11.54 32.19,11.54 32.19,11.56 32.19,39.73 28.84,39.74 28.84,39.34 
			31.8,39.34 31.8,11.93 		"/>
		<polygon fill="#FFFFFF" points="28.94,39.95 28.94,40.57 33.01,40.57 33.01,10.79 24.68,10.79 24.68,10.18 33.62,10.18 
			33.62,41.18 28.17,41.18 28.19,40.07 28.84,40.07 		"/>
	</g>
</g>
</svg>
